<?xml version="1.0" encoding="UTF-8" standalone="no"?>
<svg
   xmlns:dc="http://purl.org/dc/elements/1.1/"
   xmlns:cc="http://creativecommons.org/ns#"
   xmlns:rdf="http://www.w3.org/1999/02/22-rdf-syntax-ns#"
   xmlns:svg="http://www.w3.org/2000/svg"
   xmlns="http://www.w3.org/2000/svg"
   id="svg8"
   version="1.1"
   viewBox="0 0 135.46666 135.46667"
   height="512"
   width="512">
  <defs
     id="defs2">
    <style
       id="style4518"
       type="text/css"><![CDATA[
    .fil0 {fill:#FEFEFE}
    .fil1 {fill:#2D353B}
    .fil2 {fill:#EF5A2F;fill-rule:nonzero}
   ]]></style>
  </defs>
  <metadata
     id="metadata5">
    <rdf:RDF>
      <cc:Work
         rdf:about="">
        <dc:format>image/svg+xml</dc:format>
        <dc:type
           rdf:resource="http://purl.org/dc/dcmitype/StillImage" />
        <dc:title></dc:title>
      </cc:Work>
    </rdf:RDF>
  </metadata>
  <g
     transform="translate(0,-161.53332)"
     id="layer1">
    <g
       transform="matrix(0.00264583,0,0,0.00264583,-443.59176,-73.718912)"
       id="g4542"
       style="clip-rule:evenodd;fill-rule:evenodd;image-rendering:optimizeQuality;shape-rendering:geometricPrecision;text-rendering:geometricPrecision">
      <polygon
         transform="translate(167657.35,88714.396)"
         id="polygon4523"
         points="44410,43215 25604,10641 6797,43215 "
         class="fil0"
         style="fill:#fefefe" />
      <path
         id="path4525"
         d="m 198787.35,131929.4 h 13280 l -5095,-8825 c -1771,-282 -2939,-1153 -3970,-2104 -664,-612 -2657,-2960 -3069,-3185 l -1512,-1531 c -724,-1267 -907,-2183 -1593,-3947 -306,-789 -513,-1269 -871,-2099 -351,-816 -269,-1229 -1023,-1542 -297,2151 640,5183 -944,6111 -1833,1073 -3137,822 -4241,2725 -740,1276 -372,1233 -1595,1945 -2319,1350 -6011,2489 -6503,3992 466,850 2734,2730 3822,2897 1551,238 3925,-554 5852,-401 3166,250 6895,3645 7462,5964 z"
         class="fil1"
         style="fill:#2d353b" />
      <path
         id="path4527"
         d="m 195423.35,93174.396 23100,40011.004 c 959,1669 -272,3720 -2151,3718 v 11 h -46223 c -2043,0 -3187,-2313 -2032,-3936 l 22992,-39823.004 c 968,-1684 3386,-1635 4314,19 z m 16644,38755.004 -18806,-32574.004 -18807,32574.004 z"
         class="fil2"
         style="fill:#ef5a2f;fill-opacity:1;fill-rule:nonzero" />
    </g>
  </g>
</svg>
