<?xml version="1.0" encoding="UTF-8"?>
<!DOCTYPE svg PUBLIC "-//W3C//DTD SVG 1.1//EN" "http://www.w3.org/Graphics/SVG/1.1/DTD/svg11.dtd">
<!-- Creator: CorelDRAW 2019 (64-Bit) -->
<svg xmlns="http://www.w3.org/2000/svg" xml:space="preserve" width="210mm" height="297mm" version="1.1" style="shape-rendering:geometricPrecision; text-rendering:geometricPrecision; image-rendering:optimizeQuality; fill-rule:evenodd; clip-rule:evenodd"
viewBox="0 0 210000 297000"
 xmlns:xlink="http://www.w3.org/1999/xlink">
 <defs>
  <style type="text/css">
   <![CDATA[
    .str1 {stroke:#FEFEFE;stroke-width:200;stroke-miterlimit:22.9256}
    .str0 {stroke:#EF5A2F;stroke-width:2469.4;stroke-linejoin:round;stroke-miterlimit:22.9256}
    .fil2 {fill:none}
    .fil0 {fill:#FEFEFE}
    .fil1 {fill:#2D353B}
   ]]>
  </style>
 </defs>
 <g id="Слой_x0020_1">
  <metadata id="CorelCorpID_0Corel-Layer"/>
  <polygon class="fil0" points="65328.4,128202.2 87553.5,128202.2 76408.6,108100.6 "/>
  <path class="fil1" d="M79195.7 126883.5l6617.8 74.9 -2392.9 -4347.6c-877.2,-140.1 -1586.5,-594.8 -2097.2,-1065.8 -328.9,-303.4 -1316.2,-1466.5 -1520.2,-1578.1l-749.2 -758.3c-358.6,-627.7 -449,-1081 -788.8,-1955.2 -151.8,-390.7 -254.6,-628.3 -431.5,-1039.5 -174,-404.4 -133.4,-608.9 -506.7,-763.8 -147.5,1065.5 316.8,2567.6 -467.9,3026.9 -908.1,531.5 -1554,407.5 -2100.6,1349.8 -366.7,632.1 -184.2,610.7 -790.4,963.7 -1148.7,668.8 -2977.4,1232.6 -3220.9,1977.1 230.6,421.5 1354,1352.7 1893.2,1435.3 768.2,117.7 1944.1,-274.3 2898.7,-198.8 1568.4,123.9 3375.6,1730.8 3656.6,2879.4z"/>
  <polygon class="fil2 str0" points="76399.2,108206.6 87847.2,128035.3 64951.1,128035.3 "/>
  <rect class="fil2 str1" x="63608.5" y="105228.6" width="25600" height="25600"/>
 </g>
</svg>
